<svg xmlns="http://www.w3.org/2000/svg" width="320" height="1144" viewBox="0 0 320 1144">
    <g fill="none" fill-rule="evenodd">
        <g>
            <g>
                <g>
                    <g transform="translate(-21 -1110) translate(20 399) translate(1 711) translate(96 1)">
                        <circle cx="9" cy="9" r="9" fill="#F0F0F0"/>
                        <path stroke="#F0F0F0" stroke-linecap="square" d="M9 0L9.5 6066.5"/>
                    </g>
                    <text fill="#999" font-family="NotoSansCJKkr-Regular, Noto Sans CJK KR" font-size="18" letter-spacing="-.563" transform="translate(-21 -1110) translate(20 399) translate(1 711)">
                        <tspan x="10.01" y="58">협회창립</tspan> <tspan x="42.005" y="85">이전</tspan>
                    </text>
                    <g>
                        <g fill="#FFF" stroke="#000" stroke-width="4" transform="translate(-21 -1110) translate(20 399) translate(1 711) translate(21 101) translate(75 9)">
                            <circle cx="9" cy="9" r="7"/>
                        </g>
                        <text fill="#000" font-family="NotoSansCJKkr-Bold, Noto Sans CJK KR" font-size="24" font-weight="bold" letter-spacing="-1" transform="translate(-21 -1110) translate(20 399) translate(1 711) translate(21 101)">
                            <tspan x=".456" y="28">1937</tspan>
                        </text>
                        <text fill="#000" font-family="NotoSansCJKkr-Medium, Noto Sans CJK KR" font-size="18" font-weight="400" letter-spacing="-1" transform="translate(-21 -1110) translate(20 399) translate(1 711) translate(21 101)">
                            <tspan x="113" y="26">05월 01일</tspan>
                        </text>
                        <text fill="#999" font-family="NotoSansCJKkr-Regular, Noto Sans CJK KR" font-size="16" letter-spacing="-1" transform="translate(-21 -1110) translate(20 399) translate(1 711) translate(21 101)">
                            <tspan x="113" y="61">· (故) 유항렬 도선사 일제 </tspan> <tspan x="113" y="85">치하 한국인 최초로 </tspan> <tspan x="113" y="109">인천항도선구 에서 개업</tspan>
                        </text>
                    </g>
                    <g>
                        <g fill="#FFF" stroke="#000" stroke-width="4" transform="translate(-21 -1110) translate(20 399) translate(1 711) translate(18 245) translate(78 10)">
                            <circle cx="9" cy="9" r="7"/>
                        </g>
                        <text fill="#000" font-family="NotoSansCJKkr-Bold, Noto Sans CJK KR" font-size="24" font-weight="bold" letter-spacing="-1" transform="translate(-21 -1110) translate(20 399) translate(1 711) translate(18 245)">
                            <tspan x=".456" y="28">1948</tspan>
                        </text>
                        <text fill="#000" font-family="NotoSansCJKkr-Medium, Noto Sans CJK KR" font-size="18" font-weight="400" letter-spacing="-1" transform="translate(-21 -1110) translate(20 399) translate(1 711) translate(18 245)">
                            <tspan x="116" y="26">09월 09일</tspan>
                        </text>
                        <text fill="#999" font-family="NotoSansCJKkr-Regular, Noto Sans CJK KR" font-size="16" letter-spacing="-1" transform="translate(-21 -1110) translate(20 399) translate(1 711) translate(18 245)">
                            <tspan x="116" y="61">· 부산항 도선사조합 설립</tspan>
                        </text>
                        <text fill="#999" font-family="NotoSansCJKkr-Regular, Noto Sans CJK KR" font-size="16" letter-spacing="-1" transform="translate(-21 -1110) translate(20 399) translate(1 711) translate(18 245)">
                            <tspan x="116" y="90">· 조합장 홍순덕 도선사 외 방상</tspan> <tspan x="116" y="114">표, 김병주 도선사</tspan>
                        </text>
                        <text fill="#999" font-family="NotoSansCJKkr-Regular, Noto Sans CJK KR" font-size="16" letter-spacing="-1" transform="translate(-21 -1110) translate(20 399) translate(1 711) translate(18 245)">
                            <tspan x="116" y="143">· 이외에 인천항 유항열 도선사 </tspan> <tspan x="116" y="167">개업 중</tspan>
                        </text>
                    </g>
                    <g>
                        <g fill="#FFF" stroke="#000" stroke-width="4" transform="translate(-21 -1110) translate(20 399) translate(1 711) translate(18 447) translate(78 9)">
                            <circle cx="9" cy="9" r="7"/>
                        </g>
                        <text fill="#000" font-family="NotoSansCJKkr-Bold, Noto Sans CJK KR" font-size="24" font-weight="bold" letter-spacing="-1" transform="translate(-21 -1110) translate(20 399) translate(1 711) translate(18 447)">
                            <tspan x=".456" y="28">1961</tspan>
                        </text>
                        <text fill="#000" font-family="NotoSansCJKkr-Medium, Noto Sans CJK KR" font-size="18" font-weight="400" letter-spacing="-1" transform="translate(-21 -1110) translate(20 399) translate(1 711) translate(18 447)">
                            <tspan x="116" y="26">01월 01일</tspan>
                        </text>
                        <text fill="#999" font-family="NotoSansCJKkr-Regular, Noto Sans CJK KR" font-size="16" letter-spacing="-1" transform="translate(-21 -1110) translate(20 399) translate(1 711) translate(18 447)">
                            <tspan x="116" y="61">· 인천항 도선사조합 설립</tspan>
                        </text>
                        <text fill="#999" font-family="NotoSansCJKkr-Regular, Noto Sans CJK KR" font-size="16" letter-spacing="-1" transform="translate(-21 -1110) translate(20 399) translate(1 711) translate(18 447)">
                            <tspan x="116" y="90">· 배순태, 김동균, 윤영원 도선</tspan> <tspan x="116" y="114">사</tspan>
                        </text>
                    </g>
                    <g>
                        <text fill="#000" font-family="NotoSansCJKkr-Bold, Noto Sans CJK KR" font-size="24" font-weight="bold" letter-spacing="-1" transform="translate(-21 -1110) translate(20 399) translate(1 711) translate(18 596)">
                            <tspan x=".456" y="28">1970</tspan>
                        </text>
                        <g fill="#FFF" stroke="#000" stroke-width="4" transform="translate(-21 -1110) translate(20 399) translate(1 711) translate(18 596) translate(78 9)">
                            <circle cx="9" cy="9" r="7"/>
                        </g>
                        <text fill="#000" font-family="NotoSansCJKkr-Medium, Noto Sans CJK KR" font-size="18" font-weight="400" letter-spacing="-1" transform="translate(-21 -1110) translate(20 399) translate(1 711) translate(18 596)">
                            <tspan x="116" y="26">08월 16일</tspan>
                        </text>
                        <text fill="#999" font-family="NotoSansCJKkr-Regular, Noto Sans CJK KR" font-size="16" letter-spacing="-1" transform="translate(-21 -1110) translate(20 399) translate(1 711) translate(18 596)">
                            <tspan x="116" y="61">· (가칭)한국도선사협회 창립 </tspan> <tspan x="116" y="85">발기인 대회 개최</tspan>
                        </text>
                    </g>
                    <g>
                        <g fill="#FFF" stroke="#000" stroke-width="4" transform="translate(-21 -1110) translate(20 399) translate(1 711) translate(18 716) translate(78 9)">
                            <circle cx="9" cy="9" r="7"/>
                        </g>
                        <text fill="#000" font-family="NotoSansCJKkr-Bold, Noto Sans CJK KR" font-size="24" font-weight="bold" letter-spacing="-1" transform="translate(-21 -1110) translate(20 399) translate(1 711) translate(18 716)">
                            <tspan x=".456" y="28">1972</tspan>
                        </text>
                        <text fill="#000" font-family="NotoSansCJKkr-Medium, Noto Sans CJK KR" font-size="18" font-weight="400" letter-spacing="-1" transform="translate(-21 -1110) translate(20 399) translate(1 711) translate(18 716)">
                            <tspan x="116" y="26">01월 10일</tspan>
                        </text>
                        <text fill="#999" font-family="NotoSansCJKkr-Regular, Noto Sans CJK KR" font-size="16" letter-spacing="-1" transform="translate(-21 -1110) translate(20 399) translate(1 711) translate(18 716)">
                            <tspan x="116" y="61">· (가칭)한국도선사협회 창립</tspan> <tspan x="116" y="85">총회 소집</tspan>
                        </text>
                    </g>
                    <g>
                        <g fill="#FFF" stroke="#000" stroke-width="4" transform="translate(-21 -1110) translate(20 399) translate(1 711) translate(18 836) translate(78 9)">
                            <circle cx="9" cy="9" r="7"/>
                        </g>
                        <g fill="#FFF" stroke="#000" stroke-width="4" transform="translate(-21 -1110) translate(20 399) translate(1 711) translate(18 836) translate(78 189)">
                            <circle cx="9" cy="9" r="7"/>
                        </g>
                        <text fill="#000" font-family="NotoSansCJKkr-Medium, Noto Sans CJK KR" font-size="18" font-weight="400" letter-spacing="-1" transform="translate(-21 -1110) translate(20 399) translate(1 711) translate(18 836)">
                            <tspan x="116" y="205">01월 19일</tspan>
                        </text>
                        <text fill="#999" font-family="NotoSansCJKkr-Regular, Noto Sans CJK KR" font-size="16" letter-spacing="-1" transform="translate(-21 -1110) translate(20 399) translate(1 711) translate(18 836)">
                            <tspan x="116" y="240">· 한국도선사협회 발족(비인가 </tspan> <tspan x="116" y="264">임의단체)</tspan>
                        </text>
                        <text fill="#000" font-family="NotoSansCJKkr-Bold, Noto Sans CJK KR" font-size="24" font-weight="bold" letter-spacing="-1" transform="translate(-21 -1110) translate(20 399) translate(1 711) translate(18 836)">
                            <tspan x="0" y="28">1974</tspan>
                        </text>
                        <text fill="#000" font-family="NotoSansCJKkr-Medium, Noto Sans CJK KR" font-size="18" font-weight="400" letter-spacing="-1" transform="translate(-21 -1110) translate(20 399) translate(1 711) translate(18 836)">
                            <tspan x="116" y="26">01월 01일</tspan>
                        </text>
                        <text fill="#999" font-family="NotoSansCJKkr-Regular, Noto Sans CJK KR" font-size="16" letter-spacing="-1" transform="translate(-21 -1110) translate(20 399) translate(1 711) translate(18 836)">
                            <tspan x="116" y="61">· (가칭)한국도선사협회 창립</tspan> <tspan x="116" y="85">총회 소집</tspan>
                        </text>
                        <text fill="#999" font-family="NotoSansCJKkr-Regular, Noto Sans CJK KR" font-size="16" letter-spacing="-1" transform="translate(-21 -1110) translate(20 399) translate(1 711) translate(18 836)">
                            <tspan x="116" y="114">· 부산항 이세희 도선사외 6명</tspan> <tspan x="116" y="138">의 명의로</tspan>
                        </text>
                    </g>
                </g>
            </g>
        </g>
    </g>
</svg>
